<svg width="107" height="168" viewBox="0 0 107 168" fill="none" xmlns="http://www.w3.org/2000/svg">
<path d="M72.7925 63.6328H72.7867C55.4282 63.6328 41.3564 78.0919 41.3564 95.9281V133.625C41.3564 151.461 55.4282 165.92 72.7867 165.92H72.7925C90.1509 165.92 104.223 151.461 104.223 133.625V95.9281C104.223 78.0919 90.1509 63.6328 72.7925 63.6328Z" stroke="white" stroke-width="2.5" stroke-miterlimit="10"/>
<path d="M48.2272 75.8298C49.3792 80.973 53.7648 84.5901 58.5831 84.5781C65.0387 84.5661 69.0209 78.065 69.1086 73.7629C69.132 72.399 68.7753 71.0411 68.6876 70.7407C67.8105 67.5562 65.8048 65.5915 64.8165 64.7383C62.4775 65.3571 59.0392 66.5708 55.4138 69.0403C52.0106 71.3596 49.6833 73.9372 48.2272 75.8238V75.8298Z" stroke="white" stroke-width="2.5" stroke-miterlimit="10"/>
<path d="M50.1043 80.1562L41.3564 109.958" stroke="white" stroke-width="2.5" stroke-miterlimit="10"/>
<path d="M54.6945 83.8154C54.0923 95.3456 53.4958 106.876 52.8935 118.406" stroke="white" stroke-width="2.5" stroke-miterlimit="10"/>
<path d="M60.3958 84.584C61.6472 87.5221 62.8986 90.4662 64.1499 93.4043" stroke="white" stroke-width="2.5" stroke-miterlimit="10"/>
<path d="M69.1086 73.7686L97.2818 75.7513" stroke="white" stroke-width="2.5" stroke-miterlimit="10"/>
<path d="M67.6935 68.7704L85.5985 66.4512" stroke="white" stroke-width="2.5" stroke-miterlimit="10"/>
<path d="M64.992 82.3486C68.7928 85.2687 72.5995 88.1828 76.4004 91.1029" stroke="white" stroke-width="2.5" stroke-miterlimit="10"/>
<path d="M68.6466 77.8428L104.024 92.3171" stroke="white" stroke-width="2.5" stroke-miterlimit="10"/>
<path d="M41.7014 127.989C43.0756 129.04 45.1748 130.284 47.7009 130.212C52.7999 130.062 53.9811 124.69 58.5889 123.873C64.7347 122.779 67.138 131.528 74.0438 131.233C80.4995 130.957 82.435 123.14 87.8147 124.137C91.8026 124.876 92.6505 129.521 97.1706 130.026C100.024 130.344 102.498 128.8 103.965 127.67" stroke="white" stroke-width="2.5" stroke-miterlimit="10"/>
<path d="M41.7307 118.904C43.1048 119.955 45.2041 121.199 47.7302 121.127C52.8292 120.977 54.0104 115.605 58.6182 114.788C64.7639 113.694 67.1672 122.443 74.0731 122.148C80.5287 121.872 82.4642 114.055 87.8439 115.052C91.8319 115.791 92.6798 120.436 97.1999 120.941C100.053 121.259 102.527 119.715 103.995 118.585" stroke="white" stroke-width="2.5" stroke-miterlimit="10"/>
<path d="M41.8067 137.074C43.1808 138.125 45.2801 139.369 47.8062 139.297C52.9052 139.147 54.0864 133.775 58.6942 132.958C64.8399 131.864 67.2432 140.613 74.1491 140.318C80.6047 140.042 82.5402 132.225 87.9199 133.222C91.9079 133.961 92.7558 138.606 97.2759 139.111C100.129 139.429 102.603 137.885 104.071 136.755" stroke="white" stroke-width="2.5" stroke-miterlimit="10"/>
<path d="M44.2932 70.7769C43.9182 70.5638 43.5315 70.5352 43.1333 70.6911C42.7351 70.8469 42.3856 71.1405 42.0847 71.5716C41.8648 71.8869 41.7223 72.1996 41.6575 72.5099C41.5942 72.8178 41.6041 73.1023 41.6872 73.3636C41.7718 73.6225 41.9257 73.8341 42.1487 73.9984C42.3353 74.1359 42.5273 74.2089 42.7246 74.2174C42.9213 74.2219 43.1142 74.185 43.3032 74.1067C43.49 74.0266 43.6668 73.9288 43.8337 73.8131C43.9983 73.6957 44.1438 73.5835 44.2701 73.4765L44.966 72.8941C45.1432 72.7438 45.3531 72.5861 45.5958 72.421C45.8402 72.2535 46.108 72.1192 46.3992 72.0178C46.6898 71.9125 46.9954 71.8744 47.3161 71.9037C47.6369 71.9329 47.9611 72.0682 48.2888 72.3096C48.6666 72.5879 48.9376 72.9403 49.1018 73.3666C49.2677 73.7906 49.3062 74.2613 49.2175 74.7785C49.1304 75.2935 48.896 75.8245 48.5142 76.3716C48.1584 76.8815 47.7694 77.2636 47.3474 77.5178C46.9271 77.7697 46.4979 77.8958 46.0601 77.8961C45.6239 77.8941 45.2049 77.7662 44.8032 77.5123L45.4243 76.6222C45.7045 76.7935 45.986 76.864 46.269 76.8338C46.5513 76.7996 46.8194 76.6918 47.0735 76.5105C47.3269 76.3251 47.5522 76.091 47.7496 75.8082C47.9793 75.479 48.1332 75.1449 48.2112 74.8059C48.2871 74.4651 48.2839 74.1487 48.2018 73.8565C48.1174 73.5627 47.9477 73.3219 47.6928 73.1341C47.4607 72.9631 47.2257 72.89 46.9879 72.9148C46.75 72.9396 46.5104 73.0263 46.2689 73.1748C46.0275 73.3234 45.7852 73.4977 45.5423 73.6977L44.6851 74.3929C44.1398 74.8335 43.6083 75.1088 43.0906 75.2188C42.5728 75.3287 42.0784 75.2101 41.6073 74.8631C41.2159 74.5747 40.9498 74.2154 40.8089 73.7852C40.6674 73.3511 40.6436 72.8913 40.7376 72.406C40.8309 71.9167 41.0361 71.4449 41.3531 70.9906C41.6734 70.5316 42.0389 70.1831 42.4496 69.9451C42.858 69.7055 43.2738 69.5837 43.697 69.5796C44.1218 69.5732 44.5147 69.6941 44.8755 69.9424L44.2932 70.7769Z" fill="white"/>
<path d="M49.7283 74.5039L43.5739 68.3779L47.1689 64.5647L47.8301 65.2228L44.9564 68.2709L47.0359 70.3408L49.7234 67.4901L50.3845 68.1482L47.697 70.9988L49.7885 73.0807L52.7087 69.9833L53.3698 70.6413L49.7283 74.5039Z" fill="white"/>
<path d="M52.8665 71.2107L51.9876 71.8763L49.4685 62.8952L50.3338 62.2399L57.9367 67.3712L57.0579 68.0367L50.7288 63.6634L50.6748 63.7043L52.8665 71.2107ZM51.214 68.2087L54.7564 65.5261L55.3001 66.2841L51.7577 68.9667L51.214 68.2087Z" fill="white"/>
<path d="M62.2345 65.6218L59.7325 66.5814L56.7675 58.4198L59.3803 57.4176C60.1668 57.116 60.8991 57.0212 61.5774 57.1334C62.2546 57.2429 62.8529 57.5447 63.3721 58.0387C63.8904 58.5301 64.303 59.1982 64.61 60.043C64.9188 60.8932 65.0343 61.6829 64.9564 62.412C64.8775 63.1384 64.6102 63.7767 64.1546 64.3268C63.6979 64.8743 63.0579 65.306 62.2345 65.6218ZM60.3958 65.3281L61.8526 64.7694C62.523 64.5122 63.0312 64.169 63.3774 63.7395C63.7236 63.3101 63.9175 62.8135 63.9592 62.2496C64.0009 61.6857 63.9011 61.0717 63.6598 60.4075C63.4205 59.7486 63.1075 59.2224 62.721 58.8288C62.3335 58.4326 61.8809 58.1884 61.3634 58.0963C60.8448 58.0016 60.2689 58.0757 59.6355 58.3187L58.0678 58.92L60.3958 65.3281Z" fill="white"/>
<path d="M65.4217 64.5722L63.8294 56.0359L68.9713 55.0233L69.1423 55.9403L65.0321 56.7497L65.5702 59.6341L69.4141 58.877L69.5851 59.794L65.7412 60.551L66.2823 63.4521L70.4591 62.6295L70.6301 63.5465L65.4217 64.5722Z" fill="white"/>
<path d="M69.6635 55.0979L72.396 62.3482L72.4977 62.3459L74.9198 54.98L76.0219 54.9553L73.0186 63.7084L71.9335 63.7327L68.5614 55.1226L69.6635 55.0979Z" fill="white"/>
<path d="M80.1238 64.8402C79.5738 64.6869 79.1267 64.4537 78.7826 64.1406C78.4385 63.8275 78.2054 63.4647 78.0834 63.0522C77.9614 62.6397 77.9603 62.2066 78.0801 61.7529C78.1724 61.4031 78.3278 61.1134 78.5463 60.8838C78.7682 60.6523 79.0406 60.4568 79.3633 60.2973C79.6895 60.1359 80.0551 59.9855 80.4603 59.8461L81.9074 59.2813C82.1854 59.1915 82.4186 59.0776 82.6071 58.9394C82.7984 58.802 82.9319 58.5898 83.0076 58.3029C83.0639 58.0897 83.0245 57.8571 82.8893 57.6053C82.7568 57.3541 82.5394 57.1864 82.2372 57.1022C82.0248 57.043 81.8225 57.0453 81.6303 57.109C81.4415 57.1708 81.2788 57.2722 81.1422 57.4131C81.009 57.552 80.9194 57.7089 80.8732 57.8838C80.8212 58.0806 80.8216 58.2949 80.8744 58.5268C80.9307 58.7567 81.014 59 81.1246 59.2567C81.2385 59.5115 81.3565 59.7732 81.4785 60.042L84.075 65.8185L82.9151 65.4951L80.7589 60.7744C80.5586 60.3372 80.377 59.9403 80.2138 59.5838C80.0507 59.2273 79.9355 58.8885 79.8683 58.5676C79.801 58.2466 79.8107 57.9221 79.8973 57.5942C79.9969 57.217 80.1673 56.9095 80.4084 56.6716C80.653 56.4317 80.9473 56.2746 81.2914 56.2003C81.639 56.1241 82.0169 56.1429 82.4254 56.2568C82.8447 56.3737 83.1838 56.5562 83.4427 56.8045C83.7024 57.05 83.8785 57.3294 83.9712 57.6428C84.0646 57.9535 84.0701 58.2646 83.9878 58.5761C83.8818 58.9779 83.6904 59.2986 83.4137 59.5384C83.137 59.7781 82.7935 59.9773 82.3833 60.1358L80.3879 60.9175C79.9385 61.0915 79.6125 61.2911 79.4098 61.5162C79.2071 61.7414 79.0906 61.9114 79.0603 62.0262C78.991 62.2885 78.9945 62.5521 79.0707 62.8169C79.147 63.0817 79.2906 63.3183 79.5015 63.5268C79.7125 63.7353 79.9841 63.8858 80.3163 63.9784C80.6321 64.0665 80.9575 64.0853 81.2924 64.0349C81.628 63.9817 81.9508 63.8605 82.261 63.6711C82.5739 63.4825 82.8488 63.2276 83.0856 62.9063C83.3252 62.5858 83.5045 62.2001 83.6236 61.7491L84.5548 62.0087C84.4076 62.5663 84.2234 63.0035 84.0024 63.3203C83.7813 63.6372 83.5641 63.873 83.3508 64.0277C83.1374 64.1825 82.9688 64.2954 82.8448 64.3664C82.8013 64.3983 82.7605 64.431 82.7225 64.4644C82.6844 64.4978 82.6436 64.5304 82.6001 64.5623C82.2505 64.7905 81.8502 64.9225 81.3994 64.9581C80.9493 64.9911 80.5241 64.9518 80.1238 64.8402Z" fill="white"/>
<path d="M93.7431 64.0049C93.9136 63.6059 93.9034 63.2097 93.7124 62.8162C93.5213 62.4226 93.2011 62.0895 92.7516 61.8168C92.4229 61.6174 92.1043 61.4968 91.7959 61.4551C91.4898 61.4148 91.2137 61.4473 90.9675 61.5524C90.7237 61.659 90.5328 61.8324 90.3948 62.0726C90.2793 62.2736 90.2272 62.4749 90.2383 62.6767C90.2533 62.8775 90.3083 63.0712 90.4032 63.2577C90.4995 63.4417 90.6122 63.6142 90.7413 63.7752C90.8719 63.9337 90.9954 64.0731 91.1121 64.1935L91.7478 64.8568C91.9115 65.0256 92.0858 65.2271 92.2705 65.4615C92.4576 65.6973 92.6149 65.9596 92.7422 66.2485C92.8734 66.5363 92.9406 66.8448 92.9438 67.1739C92.9469 67.5031 92.8471 67.8441 92.6443 68.197C92.4105 68.6038 92.0941 68.9077 91.6952 69.1085C91.2986 69.3109 90.8441 69.3871 90.3317 69.3374C89.8217 69.289 89.2815 69.0919 88.7112 68.7459C88.1795 68.4233 87.7691 68.057 87.48 67.6469C87.1934 67.2383 87.0283 66.8109 86.9848 66.3648C86.9438 65.9201 87.027 65.4831 87.2346 65.0537L88.1626 65.6168C88.0234 65.9157 87.9825 66.2082 88.0398 66.4942C88.1009 66.7791 88.2323 67.0439 88.4339 67.2886C88.6394 67.5322 88.8896 67.7435 89.1844 67.9224C89.5276 68.1306 89.8681 68.2611 90.2059 68.3141C90.5452 68.3646 90.853 68.3365 91.1294 68.2299C91.4072 68.1208 91.625 67.929 91.7827 67.6545C91.9264 67.4045 91.9744 67.1593 91.9268 66.9188C91.8792 66.6784 91.7712 66.441 91.6028 66.2066C91.4343 65.9722 91.2408 65.7391 91.022 65.5072L90.2606 64.6883C89.7778 64.1673 89.4573 63.6473 89.2993 63.1283C89.1412 62.6094 89.2079 62.0962 89.4995 61.5889C89.7417 61.1673 90.0653 60.8679 90.4704 60.6905C90.8792 60.5122 91.3245 60.4519 91.8064 60.5095C92.292 60.5662 92.7717 60.7382 93.2453 61.0256C93.7238 61.3159 94.0992 61.661 94.3713 62.0608C94.6449 62.4581 94.8046 62.8723 94.8502 63.3032C94.8983 63.7357 94.8193 64.1455 94.6131 64.5327L93.7431 64.0049Z" fill="white"/>
<path d="M100.311 66.8567L101.099 67.5535L97.4061 71.9602C97.0249 72.4152 96.5797 72.7287 96.0705 72.9007C95.5653 73.0725 95.037 73.0937 94.4856 72.9642C93.9359 72.8326 93.406 72.5411 92.8958 72.0897C92.3856 71.6383 92.0264 71.1431 91.8181 70.6042C91.6116 70.0631 91.5525 69.5222 91.6406 68.9814C91.7327 68.4404 91.9694 67.9424 92.3507 67.4874L96.0434 63.0807L96.831 63.7774L93.1927 68.1192C92.9203 68.4442 92.7478 68.7952 92.6751 69.1723C92.6042 69.5473 92.6371 69.9216 92.7738 70.2952C92.9143 70.6686 93.1656 71.0154 93.5276 71.3357C93.8897 71.656 94.2608 71.8599 94.641 71.9472C95.023 72.0325 95.3881 72.0103 95.7363 71.8807C96.0885 71.7509 96.4007 71.5234 96.6731 71.1984L100.311 66.8567Z" fill="white"/>
<path d="M105.906 74.0578L99.0661 79.4078L98.4603 78.5902L101.014 70.5875L100.963 70.5194L95.593 74.7199L94.9671 73.875L101.807 68.525L102.413 69.3427L99.8558 77.3694L99.9063 77.4376L105.29 73.2266L105.906 74.0578Z" fill="white"/>
<path d="M80.2831 147.745C81.6748 147.283 85.5985 145.762 87.6919 141.683C88.2415 140.619 89.1362 138.865 88.8087 136.618C88.4404 134.148 86.8089 132.634 86.1014 132.069C85.9786 131.967 85.8441 131.871 85.8441 131.871C84.7623 131.078 83.7214 130.759 83.0197 130.615C82.3648 131.751 81.7157 132.892 81.0608 134.028C81.3415 134.148 81.7333 134.346 82.1543 134.677C82.6104 135.031 83.622 135.801 83.7565 136.93C83.7799 137.152 83.8442 137.964 83.0958 139.087C81.8619 140.92 80.0141 141.208 78.1137 142.043C76.7571 142.638 74.8742 143.72 72.8685 145.883C70.8628 143.726 68.9799 142.638 67.6233 142.043C65.717 141.208 63.8751 140.92 62.6413 139.087C61.8869 137.97 61.9513 137.152 61.9805 136.93C62.1091 135.807 63.0389 135.098 63.5827 134.677C64.3838 134.052 65.1849 133.812 65.6644 133.71C65.0212 132.742 64.378 131.775 63.7347 130.807C62.7816 130.759 61.3197 130.874 59.8929 131.871C59.8696 131.889 59.7584 131.967 59.6181 132.081C58.8813 132.658 57.2031 134.184 56.9283 136.618C56.8698 137.14 56.7587 138.721 58.0568 141.124C60.5596 145.768 65.489 147.679 65.4539 147.745C65.4422 147.769 64.8165 147.427 63.9628 146.88C62.729 146.093 61.6063 145.372 60.3783 144.212C59.6532 143.527 59.5304 143.287 58.4486 142.284C57.9223 141.797 57.4779 141.412 57.1739 141.154C55.4606 141.809 53.3672 142.788 51.1334 144.284C48.6307 145.961 46.7303 147.775 45.3678 149.277C46.8297 152.071 50.5194 158.236 57.7411 162.508C64.5768 166.552 70.8921 166.726 72.8159 166.714C74.1374 166.714 79.4001 166.594 85.4698 163.71C90.3759 161.378 93.4984 158.332 94.6153 157.178C97.6384 154.06 99.4921 150.882 100.58 148.647C99.264 147.325 97.5273 145.799 95.3404 144.369C92.9546 142.806 90.715 141.797 88.9081 141.142" fill="#1D1D1B"/>
<path d="M80.4586 148.4C83.2069 147.48 85.7154 145.81 87.4288 143.395C88.4521 141.953 89.2883 140.174 89.4871 138.39C89.7093 136.383 89.0602 134.418 87.8264 132.862C86.6569 131.39 84.9962 130.356 83.1893 129.966C82.9028 129.906 82.5987 130.008 82.4467 130.278C81.7918 131.414 81.1427 132.555 80.4878 133.691C80.3241 133.979 80.4001 134.466 80.7217 134.616C81.6748 135.049 83.1192 135.98 83.1075 137.206C83.0899 138.816 81.476 139.952 80.1896 140.505C78.9031 141.057 77.6225 141.454 76.4179 142.145C74.921 143.004 73.5819 144.14 72.389 145.408H73.3188C72.1259 144.146 70.7927 143.01 69.2899 142.145C67.98 141.394 66.5474 141.003 65.1966 140.36C64.0154 139.802 62.4483 138.552 62.6062 137.026C62.7582 135.602 64.6353 134.634 65.8165 134.364C66.2141 134.274 66.4421 133.721 66.2082 133.373C65.7814 132.73 65.3487 132.081 64.9218 131.438C64.5476 130.873 64.2903 130.164 63.5535 130.128C62.4483 130.074 61.3198 130.338 60.3257 130.825C58.5773 131.684 57.1096 133.409 56.5131 135.301C55.1799 139.513 58.5188 143.809 61.5887 146.189C62.3372 146.765 63.1266 147.282 63.9511 147.739C64.1967 147.877 64.4482 148.003 64.6937 148.129C64.7698 148.171 64.8692 148.237 64.951 148.256C65.1849 148.31 65.0738 148.676 64.7815 147.931L65.413 147.078C65.8106 147.132 65.4948 147.066 65.3837 146.988C65.2317 146.88 65.0563 146.795 64.8926 146.699C64.4715 146.447 64.0564 146.177 63.6412 145.912C62.7582 145.335 61.8928 144.735 61.1034 144.02C59.9047 142.938 58.8287 141.73 57.5949 140.685C57.4195 140.541 57.1856 140.421 56.9575 140.511C52.3556 142.283 48.2214 145.125 44.8591 148.808C44.6544 149.037 44.6135 149.355 44.7538 149.625C49.2973 158.29 57.3493 164.803 66.7988 166.767C75.3537 168.546 84.3413 166.203 91.3524 160.903C95.4749 157.785 98.8021 153.693 101.106 149.001C101.235 148.736 101.223 148.4 101.001 148.183C97.5917 144.771 93.516 142.151 89.0368 140.499C88.2357 140.204 87.8966 141.508 88.686 141.802C92.9488 143.371 96.8257 145.894 100.071 149.139L99.9658 148.322C95.5158 157.382 87.1832 163.805 77.4354 165.602C69.1963 167.122 60.507 164.532 54.0396 159.131C50.6949 156.331 47.929 152.852 45.8882 148.952L45.783 149.77C48.9874 146.261 52.9111 143.515 57.3025 141.82L56.6651 141.646C58.0978 142.86 59.3258 144.308 60.7759 145.498C61.6063 146.177 62.4834 146.771 63.3839 147.342C63.9862 147.727 64.6937 148.334 65.413 148.43C65.8106 148.484 66.1965 147.949 66.0445 147.577C65.7989 146.952 64.7581 146.669 64.2318 146.363C62.8693 145.57 61.6063 144.608 60.5186 143.455C58.1095 140.895 56.2675 136.996 58.7469 133.847C59.9807 132.279 61.7232 131.414 63.6938 131.492L63.1266 131.156C63.7698 132.123 64.4131 133.09 65.0563 134.058L65.4481 133.066C63.9336 133.415 62.2086 134.472 61.5361 135.974C60.8636 137.476 61.6764 139.279 62.805 140.372C64.1499 141.67 65.9802 142.031 67.6058 142.794C69.4185 143.647 70.9856 144.903 72.3656 146.363C72.6112 146.621 73.0498 146.621 73.2954 146.363C74.6228 144.957 76.1139 143.749 77.8389 142.896C79.3651 142.145 81.0959 141.808 82.4526 140.721C83.5753 139.82 84.5986 138.288 84.3588 136.755C84.1191 135.223 82.6631 134.04 81.3591 133.451L81.593 134.376C82.2479 133.24 82.897 132.099 83.5519 130.963L82.8092 131.276C84.5869 131.66 86.1949 132.724 87.1949 134.292C88.4696 136.281 88.4053 138.612 87.4112 140.709C85.9201 143.851 83.2829 146.026 80.0726 147.102C79.2715 147.372 79.6165 148.676 80.4235 148.406L80.4586 148.4Z" fill="white"/>
<path d="M60.197 115.191C61.9454 113.677 66.6643 109.603 72.465 110.588C74.8099 110.991 74.1199 111.67 77.6518 112.739C82.973 114.344 86.1306 113.286 87.1832 115.263C87.6743 116.182 87.5574 117.684 87.0311 118.73C86.3353 120.112 85.312 120.022 84.6278 121.518C84.4875 121.824 84.4758 121.95 84.1892 124.474C83.8384 127.598 83.739 127.286 83.7273 128.121C83.7156 129.227 83.5694 130.218 83.6396 131.54C83.6747 132.189 83.7331 132.279 83.7565 132.477C83.7799 132.645 83.7741 132.765 83.7741 132.796C83.7741 133.06 83.8793 133.535 83.9963 133.883C84.2068 134.508 84.5342 134.971 84.7506 135.247C84.8792 138.011 84.4758 138.786 84.0489 138.936C83.7273 139.05 83.5519 138.696 82.8092 138.66C82.1251 138.624 82.0725 138.906 80.8737 139.098C80.2948 139.194 80.1077 139.158 79.7042 139.327C79.3358 139.477 79.2189 139.621 78.8096 139.897C78.2248 140.3 77.7453 140.51 76.915 140.871C76.1314 141.213 76.2425 141.093 75.5759 141.388C74.3245 141.94 73.4474 142.583 72.734 142.349C72.6814 142.331 72.5703 142.289 72.5411 142.277C70.9681 141.694 70.4944 141.117 69.5588 140.679C69.2548 140.534 69.0443 140.582 68.7285 140.414C68.4888 140.282 68.3952 140.174 67.8748 139.771C67.8748 139.771 67.8455 139.747 67.3368 139.369C66.2024 138.516 65.641 138.089 65.1557 138.029C63.9979 137.879 63.5593 139.471 62.6179 139.351C61.6004 139.219 60.7876 137.176 60.8578 135.487C60.9689 132.826 63.2669 131.215 63.6295 130.969C62.5477 127.893 61.9279 125.591 61.8869 125.153C61.7817 124.077 61.9162 124.191 61.7934 123.555C61.1969 120.388 58.3258 119.619 58.3609 117.72C58.3668 117.288 58.5071 116.633 60.1853 115.185L60.197 115.191Z" fill="#1D1D1B"/>
<path d="M83.5343 123.831C83.4349 125.033 83.2127 126.199 83.0197 127.382C82.7975 128.746 83.1835 130.11 83.2478 131.474C83.3121 132.838 82.6923 133.895 82.5636 135.193C82.4175 136.635 82.8268 138.029 83.4232 139.321L84.2477 138.215C83.008 138.041 81.8619 137.566 80.9088 136.719C80.5872 136.431 79.9732 136.401 79.7627 136.869C79.406 137.651 78.8914 138.275 78.178 138.726H78.9148C78.295 138.426 77.7336 138.017 77.3126 137.452C77.067 137.122 76.6986 136.972 76.3127 137.182C74.8157 138.005 73.465 139.069 72.313 140.342C71.6756 141.051 72.7048 142.115 73.348 141.406C74.4239 140.216 75.6636 139.243 77.0553 138.48L76.0554 138.209C76.4296 138.708 76.8273 139.147 77.3301 139.513C77.6985 139.784 78.2657 140.228 78.7511 140.102C79.7393 139.844 80.634 138.51 81.0375 137.633L79.8913 137.783C81.0316 138.792 82.3824 139.453 83.8793 139.663C84.5226 139.754 84.9962 139.189 84.7038 138.558C84.1542 137.374 83.8209 136.046 84.1249 134.743C84.2594 134.154 84.5284 133.607 84.6395 133.006C84.7623 132.357 84.7448 131.702 84.698 131.047C84.6161 129.876 84.2711 128.668 84.4933 127.502C84.7155 126.337 84.9085 125.069 85.0079 123.825C85.0839 122.864 83.622 122.87 83.546 123.825L83.5343 123.831Z" fill="white"/>
<path d="M61.7934 123.831C61.8109 124.035 61.8343 124.336 61.8694 124.696C62.0858 126.805 62.3314 127.268 62.3781 128.139C62.3781 128.187 62.3372 128.566 62.267 129.329C62.1618 130.392 62.0331 131.402 62.0156 131.792C61.9454 133.306 62.5185 133.727 62.7465 135.187C62.8927 136.094 62.9044 137.404 62.2787 139.098C62.805 138.894 63.5301 138.54 64.2552 137.915C64.6938 137.536 65.0212 137.158 65.2668 136.827C65.413 137.206 65.6703 137.759 66.1439 138.323C66.5708 138.834 67.021 139.165 67.3543 139.375C67.6292 139.261 68.0385 139.056 68.4478 138.678C68.8864 138.269 69.132 137.843 69.2606 137.566C69.8805 138.041 70.5354 138.588 71.2078 139.213C71.816 139.777 72.354 140.336 72.8334 140.871" fill="#1D1D1B"/>
<path d="M61.0624 123.831C61.1619 125.093 61.3548 126.325 61.5712 127.562C61.7641 128.656 61.4776 129.84 61.3607 130.927C61.2905 131.594 61.2379 132.243 61.349 132.91C61.4484 133.499 61.694 134.033 61.8577 134.604C62.2787 136.052 62.0624 137.5 61.5653 138.9C61.3841 139.411 61.9571 140.03 62.4658 139.826C63.7698 139.297 64.9042 138.498 65.7755 137.362L64.5534 137.032C64.9978 138.149 65.8866 139.639 67.062 140.066C67.6175 140.264 68.2549 139.783 68.6759 139.447C69.1788 139.044 69.5881 138.54 69.8805 137.951L68.8805 138.221C70.1144 139.177 71.2546 140.246 72.3072 141.412C72.9504 142.121 73.9795 141.057 73.3422 140.348C72.2019 139.086 70.9564 137.957 69.6173 136.923C69.3133 136.689 68.7811 136.863 68.6174 137.194C68.2549 137.921 67.7052 138.414 66.9743 138.732H67.711C66.9392 138.227 66.3076 137.512 65.9626 136.635C65.7814 136.178 65.1206 135.806 64.7405 136.305C64.033 137.23 63.1442 137.951 62.0741 138.383L62.9746 139.309C63.4599 137.945 63.6763 136.515 63.4541 135.073C63.3488 134.4 63.1032 133.799 62.9103 133.156C62.7173 132.513 62.7231 131.846 62.7933 131.161C62.9161 129.966 63.2085 128.704 63.033 127.502C62.8576 126.301 62.6179 125.081 62.5185 123.843C62.4425 122.888 60.9806 122.876 61.0566 123.843L61.0624 123.831Z" fill="white"/>
<path d="M64.4248 103.931C63.6178 106.238 62.4951 108.485 60.9046 110.33C60.6414 110.636 60.6122 111.093 60.9046 111.393C61.1736 111.67 61.6764 111.7 61.9396 111.393C63.7055 109.344 64.9393 106.893 65.834 104.333C65.9685 103.949 65.682 103.51 65.3253 103.408C64.9218 103.294 64.5592 103.552 64.4248 103.931Z" fill="white"/>
<path d="M65.6878 103.216C65.565 99.5873 66.9509 95.862 70.0734 93.9213C71.8335 92.8278 74.0906 92.2089 76.1256 92.0106C77.7453 91.8544 79.3183 92.0227 80.8737 92.4733C82.0666 92.8218 83.0607 93.4707 83.6045 94.6604C83.9846 95.4895 84.0781 96.4268 84.0197 97.3281C83.9554 98.2954 85.4172 98.2894 85.4815 97.3281C85.6277 95.1771 84.8266 92.9359 82.9847 91.7583C81.4585 90.7849 79.33 90.4665 77.5524 90.4484C72.6112 90.3884 67.2666 92.6175 65.2259 97.5144C64.4832 99.2989 64.1558 101.276 64.2201 103.216C64.2552 104.178 65.7171 104.184 65.682 103.216H65.6878Z" fill="white"/>
<path d="M61.2086 103.09C64.606 104.736 68.325 105.866 72.0908 106.022C75.8566 106.178 79.8797 105.481 83.6337 104.73C84.5576 104.544 84.1659 103.096 83.2478 103.282C79.7042 103.991 75.9911 104.64 72.3598 104.526C68.7285 104.412 65.1791 103.354 61.9454 101.786C61.0975 101.377 60.3549 102.669 61.2086 103.084V103.09Z" fill="white"/>
<path d="M70.4477 104.556C70.6406 101.047 72.6873 97.8328 75.8858 96.4929C77.8623 95.6637 80.903 95.2071 82.8209 96.3908C83.6864 96.9255 84.1659 97.8328 84.3764 98.8182C84.4816 99.3109 84.4173 100.224 84.1074 100.909C83.7156 101.78 84.9728 102.543 85.3704 101.666C86.1248 99.9958 86.037 98.0972 85.0371 96.547C83.9086 94.7925 81.9029 94.2397 79.9615 94.2277C76.6694 94.2097 73.4123 95.4835 71.3072 98.1753C69.8863 99.9958 69.1144 102.237 68.9858 104.556C68.9332 105.524 70.395 105.518 70.4477 104.556Z" fill="white"/>
<path d="M75.3069 104.736C75.3362 104.406 75.4823 103.751 75.6636 103.306C75.9501 102.585 76.4121 101.936 76.991 101.438C77.9441 100.609 79.2832 100.212 80.517 100.236C81.1427 100.248 81.7567 100.38 82.3473 100.597C82.7917 100.759 83.3764 100.975 83.7507 101.42C84.0489 101.774 84.3237 102.327 84.0664 102.778C83.8969 103.084 83.5577 103.234 83.2478 103.294C82.3239 103.475 82.7157 104.923 83.6337 104.742C84.7623 104.52 85.6979 103.463 85.6219 102.255C85.5283 100.819 84.4407 99.8815 83.242 99.3588C80.7568 98.2773 77.6751 98.6318 75.6987 100.615C74.6052 101.714 73.9854 103.192 73.8392 104.742C73.7456 105.704 75.2075 105.698 75.3011 104.742L75.3069 104.736Z" fill="white"/>
<path d="M62.2261 102.003C61.6998 99.9958 62.0507 97.8447 63.2962 96.1924C64.454 94.6603 66.0211 93.765 67.7987 93.2002C71.5353 91.9985 75.4239 91.5599 79.3183 92.1067C80.2363 92.2389 80.634 90.7908 79.7042 90.6587C76.2484 90.172 72.6755 90.2801 69.2899 91.1934C67.6643 91.632 65.9685 92.0947 64.53 93.026C63.2845 93.8311 62.1735 94.9967 61.4659 96.3246C60.4718 98.1812 60.273 100.368 60.8051 102.405C61.0507 103.336 62.46 102.94 62.2144 102.009L62.2261 102.003Z" fill="white"/>
<path d="M61.4718 107.938C61.3548 113.478 61.4835 119.024 61.8519 124.558Z" fill="white"/>
<path d="M60.7408 107.938C60.6297 113.484 60.7525 119.03 61.1209 124.558C61.1853 125.519 62.6471 125.525 62.5828 124.558C62.2144 119.024 62.0858 113.478 62.2027 107.938C62.2203 106.971 60.7584 106.971 60.7408 107.938Z" fill="white"/>
<path d="M62.1969 108.883C62.1852 106.864 62.2436 104.845 62.3606 102.832C62.384 102.43 62.0097 102.081 61.6297 102.081C61.2145 102.081 60.9221 102.424 60.8987 102.832C60.7818 104.845 60.7291 106.864 60.735 108.883C60.735 109.85 62.2027 109.85 62.1969 108.883Z" fill="white"/>
<path d="M60.8929 113.942C60.0742 113.845 59.2088 114.086 58.5714 114.621C57.6943 115.36 57.513 116.525 57.6358 117.625C57.8639 119.674 59.2205 121.44 61.0507 122.269C61.4133 122.432 61.8343 122.377 62.0507 121.999C62.2319 121.68 62.1501 121.134 61.7875 120.971C60.4952 120.389 59.3433 119.223 59.1094 117.745C59.0041 117.078 58.9515 116.267 59.4895 115.786C59.9105 115.408 60.3666 115.384 60.887 115.444C61.2788 115.492 61.618 115.065 61.618 114.693C61.618 114.248 61.2788 113.99 60.887 113.942H60.8929Z" fill="white"/>
<path d="M85.1658 115.341C85.6803 115.281 86.1072 115.305 86.5282 115.648C87.1071 116.123 87.0545 116.964 86.9492 117.643C86.7153 119.121 85.5634 120.286 84.2711 120.869C83.9086 121.031 83.8267 121.578 84.008 121.897C84.2243 122.281 84.6453 122.329 85.0079 122.167C86.844 121.344 88.1948 119.577 88.4228 117.522C88.5398 116.447 88.3702 115.287 87.5223 114.554C86.8791 113.996 85.9961 113.743 85.1658 113.839C84.774 113.887 84.4348 114.152 84.4348 114.59C84.4348 114.963 84.7681 115.39 85.1658 115.341Z" fill="white"/>
<path d="M84.5752 108.714C84.6921 113.971 84.5635 119.229 84.1951 124.474Z" fill="white"/>
<path d="M83.8442 108.714C83.9553 113.971 83.8325 119.229 83.4641 124.474C83.394 125.441 84.8558 125.435 84.926 124.474C85.2944 119.229 85.4231 113.971 85.3061 108.714C85.2827 107.746 83.8208 107.746 83.8442 108.714Z" fill="white"/>
<path d="M85.312 109.603C85.3237 107.687 85.2652 105.776 85.1482 103.865C85.1248 103.463 84.8325 103.114 84.4173 103.114C84.0431 103.114 83.663 103.457 83.6864 103.865C83.8033 105.776 83.8559 107.687 83.8501 109.603C83.8501 110.571 85.3061 110.571 85.312 109.603Z" fill="white"/>
<path d="M72.1317 115.864C72.1317 118.171 72.1317 120.473 72.1317 122.78C72.1317 123.747 73.5936 123.747 73.5936 122.78C73.5936 120.473 73.5936 118.171 73.5936 115.864C73.5936 114.897 72.1317 114.897 72.1317 115.864Z" fill="white"/>
<path d="M72.6112 126.685C71.0441 127.539 69.7226 128.025 68.8279 128.302C67.635 128.668 66.7462 128.812 66.4948 128.848C65.758 128.957 65.2668 128.957 65.0387 128.999C63.5067 129.257 61.1677 128.884 57.6943 125.928V125.952C58.6007 126.343 60.811 127.202 62.7056 126.824C62.8752 126.788 63.4307 126.661 64.1207 126.445C64.7113 126.259 65.4598 125.982 66.3486 125.532C68.442 124.468 70.857 124.516 72.927 125.658L72.8627 125.64C74.9327 124.492 77.3477 124.444 79.4411 125.514C80.3299 125.964 81.0784 126.247 81.669 126.427C82.3648 126.643 82.9145 126.77 83.0841 126.806C84.9787 127.184 87.189 126.325 88.0895 125.934H88.2006C84.7272 128.884 82.3882 129.257 80.8562 128.999C80.6223 128.957 80.1369 128.957 79.4002 128.848C79.1487 128.812 78.2599 128.668 77.067 128.302C76.1723 128.025 74.8508 127.539 73.2837 126.685" fill="#1D1D1B"/>
<path d="M72.2428 126.036C69.8454 127.322 67.407 128.007 64.7347 128.29C62.2963 128.542 59.9982 126.902 58.2089 125.394C57.6651 124.937 56.7996 125.351 56.9868 126.127C57.1096 126.631 57.6943 126.763 58.1095 126.92C58.7118 127.148 59.3316 127.34 59.9631 127.472C61.2847 127.743 62.5302 127.677 63.8225 127.316C65.2025 126.926 66.4363 126.151 67.8046 125.754C69.4068 125.297 71.0792 125.52 72.5528 126.307L73.1141 124.937L73.0498 124.919L73.2252 126.289C74.576 125.568 76.1256 125.297 77.6167 125.646C78.9558 125.958 80.1486 126.739 81.4643 127.154C82.6455 127.527 83.7916 127.743 85.0371 127.587C85.6921 127.502 86.3353 127.358 86.9668 127.154C87.3118 127.046 87.9199 126.697 88.1948 126.679L87.6802 125.4C85.8967 126.902 83.5928 128.548 81.1544 128.296C78.4821 128.013 76.0437 127.334 73.6462 126.042C72.8159 125.592 72.0733 126.89 72.9095 127.34C75.5584 128.764 78.2891 129.563 81.2597 129.804C84.0548 130.032 86.6627 128.181 88.7094 126.463C89.1947 126.054 88.8029 125.135 88.1948 125.183C87.7562 125.213 87.3586 125.442 86.9493 125.586C86.3119 125.808 85.6453 126 84.9787 126.097C83.6513 126.283 82.3882 125.934 81.1544 125.472C79.7393 124.937 78.5172 124.204 76.9793 124.042C75.4414 123.879 73.8743 124.264 72.4884 125.003C71.9329 125.297 72.0674 126.223 72.6639 126.373L72.7282 126.391C73.5059 126.589 74.0497 125.424 73.2895 125.021C72.0148 124.342 70.6056 123.958 69.1612 124.03C67.5883 124.108 66.3544 124.799 64.9218 125.37C63.8166 125.814 62.612 126.217 61.4192 126.169C60.2263 126.121 59.0042 125.718 57.8873 125.237L58.396 125.76V125.736C57.9808 125.982 57.5774 126.223 57.168 126.469C59.2147 128.193 61.8226 130.044 64.6177 129.81C67.5883 129.563 70.319 128.77 72.9679 127.346C73.8041 126.896 73.0615 125.604 72.2312 126.048L72.2428 126.036Z" fill="white"/>
<path d="M73.7456 114.824C73.7866 115.245 74.1608 118.441 76.2659 119.319C76.8448 119.559 77.488 119.553 78.7803 119.547C80.1486 119.541 81.0082 119.523 81.8561 118.964C82.5929 118.478 82.9496 117.823 83.1309 117.486C83.2829 117.21 83.5636 116.609 83.7273 114.416C83.7741 113.797 83.815 112.962 83.815 111.964H83.8326C82.7859 111.616 81.2129 111.237 79.2832 111.261C76.7863 111.297 74.845 112.006 73.7281 112.517H72.1668C71.05 112.006 69.1086 111.303 66.6117 111.261C64.682 111.231 63.1091 111.616 62.0624 111.964C62.0624 112.968 62.1033 113.803 62.1501 114.416C62.3138 116.609 62.5945 117.204 62.7465 117.486C62.9278 117.823 63.2845 118.478 64.0213 118.964C64.8692 119.523 65.7229 119.541 67.0971 119.547C68.3894 119.553 69.0326 119.559 69.6115 119.319C71.7166 118.441 72.0908 115.245 72.1317 114.824C72.6346 114.854 73.1434 114.848 73.6462 114.794" fill="#1D1D1B"/>
<path d="M73.0907 114.824C73.2311 116.158 73.6053 117.528 74.4006 118.616C75.6987 120.388 77.6518 120.28 79.6165 120.214C81.4409 120.154 83.0081 119.397 83.8033 117.618C84.5518 115.948 84.4758 113.761 84.4758 111.964L83.8209 112.637H83.8384C84.5927 112.637 84.7155 111.538 84.0138 111.31C82.0666 110.679 79.9908 110.444 77.9617 110.667C76.9676 110.775 75.9852 110.979 75.0379 111.285C74.6754 111.406 74.3187 111.538 73.9679 111.682C73.9035 111.706 73.4065 111.892 73.617 111.85C73.8743 111.802 73.1901 111.832 73.1609 111.832C72.6697 111.832 72.389 111.862 71.9505 111.682C71.6289 111.55 71.3014 111.424 70.9739 111.316C69.9916 110.991 68.98 110.781 67.9566 110.667C65.9217 110.438 63.8517 110.679 61.9045 111.31C61.6297 111.4 61.4192 111.658 61.4192 111.958C61.4192 113.743 61.3431 115.912 62.0799 117.582C62.8693 119.373 64.4481 120.142 66.2784 120.208C68.2022 120.274 70.1494 120.388 71.4417 118.676C72.2721 117.582 72.658 116.182 72.8042 114.818L72.1493 115.491C72.658 115.515 73.1551 115.509 73.6638 115.461C74.5 115.383 74.5058 114.031 73.6638 114.109C73.1551 114.158 72.658 114.17 72.1493 114.139C71.7692 114.121 71.5295 114.464 71.4944 114.812C71.4067 115.66 71.0909 116.831 70.5529 117.648C69.5705 119.151 67.8397 118.904 66.2843 118.85C65.4013 118.82 64.5885 118.676 63.9394 118.009C63.6353 117.696 63.3196 117.168 63.2202 116.879C62.6939 115.365 62.7407 113.539 62.7407 111.958L62.2553 112.607C64.1499 111.994 66.1439 111.778 68.1204 112.037C69.0326 112.157 69.9331 112.379 70.8102 112.679C71.1435 112.794 71.4651 112.944 71.7926 113.064C72.237 113.232 72.6931 113.184 73.1667 113.184C73.886 113.184 74.3655 112.95 75.0379 112.709C75.8858 112.409 76.7629 112.181 77.6518 112.055C79.675 111.766 81.7333 111.976 83.6805 112.607L83.8559 111.279H83.8384C83.4817 111.279 83.1835 111.592 83.1835 111.952C83.1835 113.539 83.2186 115.317 82.7157 116.837C82.6163 117.144 82.3005 117.684 81.9848 118.003C81.3298 118.664 80.5287 118.814 79.6399 118.844C78.1196 118.898 76.4063 119.145 75.4122 117.708C74.845 116.885 74.5175 115.678 74.424 114.806C74.3304 113.935 73.0147 113.941 73.1083 114.806L73.0907 114.824Z" fill="white"/>
<path d="M63.4482 114.728C63.5242 113.604 64.53 112.439 65.5942 112.427C64.7464 113.028 64.0563 113.995 63.4482 114.728Z" fill="white"/>
<path d="M64.2435 114.705C64.378 113.911 64.9802 113.263 65.7463 113.112C65.3194 113.791 64.8925 114.254 64.2435 114.705Z" fill="white"/>
<path d="M75.5057 114.933C75.5701 113.791 76.5641 112.577 77.6576 112.535C76.798 113.166 76.1197 114.163 75.5057 114.933Z" fill="white"/>
<path d="M76.3127 114.741C76.4472 113.948 77.0495 113.299 77.8155 113.148C77.3886 113.827 76.9618 114.29 76.3127 114.741Z" fill="white"/>
</svg>
